#!OML:ASF H:\Pregnant\Project 1\Capture day 1\Session 1\femalepreg.ASF
:FULLY-SPECIFIED
:DEGREES
747
root 22.648 15.5989 -19.4363 194.83 -24.6816 185.078
lowerback -12.8992 4.32511 7.68312
upperback -6.38404 4.27018 -1.37558
thorax 1.15037 1.70602 -5.16412
lowerneck -12.7241 11.5564 13.9233
upperneck 27.7383 13.8104 -5.62568
head 12.7835 6.60784 -2.33641
rclavicle -2.5842e-015 -4.77083e-015
rhumerus -30.8394 -3.28178 -80.9238
rradius 26.8242
rwrist -1.4326
rhand -16.5186 -13.4383
rfingers 7.12502
rthumb 9.69984 -43.195
lclavicle -2.5842e-015 -4.77083e-015
lhumerus -40.5107 0.544895 76.5571
lradius 30.3552
lwrist 38.8922
lhand -12.3111 -5.7142
lfingers 7.12502
lthumb 13.7572 23.811
rfemur -8.07453 8.68772 28.3187
rtibia 26.4563
rfoot -12.3193 -14.5023
rtoes -38.4962
lfemur -49.0106 -4.37036 -19.3016
ltibia 24.6158
lfoot 2.20177 9.87073
ltoes -14.7477
748
root 22.5799 15.5965 -19.5654 194.731 -25.0176 185.112
lowerback -13.1359 4.28174 7.22134
upperback -6.41298 4.24477 -1.4842
thorax 1.22296 1.70019 -5.01213
lowerneck -12.5774 11.4974 13.9673
upperneck 27.5692 13.7062 -5.54768
head 12.6702 6.58292 -2.34041
rclavicle -1.03989e-014 -1.35174e-014
rhumerus -31.4321 -3.65971 -80.8406
rradius 26.7897
rwrist -1.16537
rhand -16.4071 -13.3671
rfingers 7.12502
rthumb 9.80736 -43.1187
lclavicle -1.03989e-014 -1.35174e-014
lhumerus -40.4604 0.302631 76.5886
lradius 29.9918
lwrist 39.0089
lhand -12.4028 -5.70179
lfingers 7.12502
lthumb 13.6688 23.8294
rfemur -7.56546 8.56026 28.4444
rtibia 26.6227
rfoot -11.8264 -14.1657
rtoes -39.0895
lfemur -48.9179 -4.44218 -19.4643
ltibia 25.2757
lfoot 2.89822 9.07462
ltoes -12.9366
749
root 22.5102 15.5955 -19.6984 194.66 -25.428 185.04
lowerback -13.438 4.21195 6.6832
upperback -6.42282 4.19338 -1.65855
thorax 1.34704 1.68441 -4.88709
lowerneck -12.3791 11.4213 14.1252
upperneck 27.3646 13.5626 -5.49721
head 12.5413 6.55001 -2.3815
rclavicle -2.83268e-015 -7.95139e-015
rhumerus -32.0653 -4.2266 -80.7591
rradius 26.7649
rwrist -0.808324
rhand -16.293 -13.31
rfingers 7.12502
rthumb 9.91745 -43.0564
lclavicle -2.83268e-015 -7.95139e-015
lhumerus -40.3503 0.00974583 76.5506
lradius 29.5364
lwrist 39.0953
lhand -12.524 -5.66605
lfingers 7.12502
lthumb 13.552 23.8729
rfemur -7.13965 8.32085 28.4818
rtibia 27.0022
rfoot -11.3742 -13.8169
rtoes -39.6485
lfemur -48.735 -4.50859 -19.7913
ltibia 25.8826
lfoot 3.30543 8.15674
ltoes -11.0186
750
root 22.442 15.5942 -19.8291 194.597 -25.861 184.882
lowerback -13.6253 4.13525 6.08835
upperback -6.47617 4.15106 -1.89291
thorax 1.36562 1.66745 -4.7988
lowerneck -12.1144 11.3206 14.3517
upperneck 27.1666 13.3704 -5.43735
head 12.4024 6.50298 -2.44138
rclavicle 3.21534e-014 6.36111e-015
rhumerus -32.8197 -4.95356 -80.663
rradius 26.7612
rwrist -0.419219
rhand -16.2436 -13.2523
rfingers 7.12502
rthumb 9.96519 -42.9964
lclavicle 3.21534e-014 6.36111e-015
lhumerus -40.228 -0.332472 76.4662
lradius 28.9798
lwrist 39.1193
lhand -12.6593 -5.58461
lfingers 7.12502
lthumb 13.4216 23.963
rfemur -6.83688 8.04216 28.4496
rtibia 27.6224
rfoot -10.9213 -13.4561
rtoes -40.0922
lfemur -48.4655 -4.61417 -20.1911
ltibia 26.4406
lfoot 3.46448 7.29706
ltoes -9.15469
751
root 22.3738 15.5948 -19.9586 194.553 -26.3297 184.635
lowerback -13.7741 4.04254 5.43144
upperback -6.52505 4.1005 -2.16395
thorax 1.36587 1.64667 -4.71701
lowerneck -11.8506 11.2008 14.6096
upperneck 26.9713 13.1489 -5.39078
head 12.2658 6.44315 -2.51575
rclavicle 3.19795e-014 4.77083e-014
rhumerus -33.6328 -5.79166 -80.5434
rradius 26.783
rwrist -0.0062057
rhand -16.2422 -13.2001
rfingers 7.12502
rthumb 9.96649 -42.9441
lclavicle 3.19795e-014 4.77083e-014
lhumerus -40.0344 -0.627844 76.3383
lradius 28.3194
lwrist 39.0259
lhand -12.8294 -5.50432
lfingers 7.12502
lthumb 13.2576 24.054
rfemur -6.63105 7.71648 28.3405
rtibia 28.4324
rfoot -10.4521 -13.0905
rtoes -40.4221
lfemur -48.1056 -4.78915 -20.6586
ltibia 26.9478
lfoot 3.41096 6.54717
ltoes -7.46354
